<?xml version="1.0" encoding="utf-8"?>
<!-- Generator: Adobe Illustrator 22.1.0, SVG Export Plug-In . SVG Version: 6.00 Build 0)  -->
<svg version="1.1" id="Layer_1" xmlns="http://www.w3.org/2000/svg" xmlns:xlink="http://www.w3.org/1999/xlink" x="0px" y="0px"
	 viewBox="0 0 5000 5000" style="enable-background:new 0 0 5000 5000;" xml:space="preserve">
<style type="text/css">
	.st0{fill:#0033AC;}
</style>
<g>
	<path class="st0" d="M4206.2,2516.7c-5.4,3-5.9,9.1-8.5,13.9c-16.9,31.3-50.8,46.4-84.6,37.5c-33.3-8.7-56.3-39.7-55.2-74.3
		c1.1-34,25.6-63.6,58.3-70c34.9-6.9,68.8,10.7,83.6,43.1c2,4.4,1.8,10,6.3,13.2C4206.2,2492.2,4206.2,2504.4,4206.2,2516.7z"/>
	<path class="st0" d="M793.8,2486.7c2.1-4.5,4.3-9,6.3-13.5c14.8-32.1,48.2-49.2,82.2-42.3c34.1,7,59.1,36.4,59.8,70.6
		c0.7,34.4-23.1,66-55.8,74.1c-34,8.4-67.7-7-84.3-38.3c-2.5-4.8-3-10.8-8.2-14.1C793.8,2511.1,793.8,2498.9,793.8,2486.7z"/>
	<path class="st0" d="M1729.2,2501.7c0.2-128.4,102.7-230.9,230.9-230.7c127.2,0.2,229.3,103.3,228.7,230.9
		c-0.6,129.1-102.6,228.6-234.1,228.6C1831.3,2730.4,1729,2626.7,1729.2,2501.7z"/>
	<path class="st0" d="M2000,2968.3c0.4-126.5,104.1-228.9,231.4-228.5c126.9,0.4,229,103.5,228.6,231.1
		c-0.3,127-103.6,229.1-231.1,228.6C2102.1,3198.8,1999.7,3095.5,2000,2968.3z"/>
	<path class="st0" d="M2457.9,2031.7c-0.4,127.6-102.7,229.4-230.3,229.1c-126.9-0.3-230-104-229.2-230.6
		c0.8-126.8,104.6-230.1,230.8-229.7C2356,1800.9,2458.3,1904.3,2457.9,2031.7z"/>
	<path class="st0" d="M2541.7,2967.8c0.7-127.1,104.1-229.4,231.3-228.7c127,0.7,229.8,104.6,228.8,231.3
		c-1,126.2-104.2,228.4-230.4,228.2C2644.7,3198.4,2541,3094.1,2541.7,2967.8z"/>
	<path class="st0" d="M3040.5,2727.8c-123.7,1.6-226.6-100.1-228.4-225.8c-1.8-127.2,98.3-230.8,224.9-232.8
		c127.9-2,232,97.7,233.5,223.8C3272,2623.9,3171.9,2726.1,3040.5,2727.8z"/>
	<path class="st0" d="M2540,2029.9c0.1-126.7,103.5-229.5,230.6-229.3c125.9,0.2,228.7,103.7,228.3,229.7
		c-0.4,126.4-103,229.2-228.9,229.3C2642.8,2259.7,2539.9,2156.9,2540,2029.9z"/>
	<path class="st0" d="M1695.9,1903.3c74.8,0.4,134.6,60.4,134.5,134.8c-0.2,75.4-61,135.9-135.9,135.1
		c-74-0.7-134.3-61.9-133.9-135.8C1560.9,1963.2,1621.7,1902.9,1695.9,1903.3z"/>
	<path class="st0" d="M3303.8,3096.6c-74.8-0.5-134.5-60.6-134.2-135c0.3-75.3,61.3-135.7,136.2-134.8
		c73.9,0.8,134.1,62.2,133.6,136.2C3438.9,3037.1,3378,3097.2,3303.8,3096.6z"/>
	<path class="st0" d="M2627.3,3427.2c0,75.6-59.7,135.4-135.1,135.4c-74.2,0-134.8-60.6-134.5-134.4
		c0.4-75.3,59.4-135.1,133.6-135.2C2567.3,3292.8,2627.4,3352.1,2627.3,3427.2z"/>
	<path class="st0" d="M2497.5,1707.1c-75.7-0.2-134.9-59.8-134.8-135.6c0.1-74.6,60.1-134.5,134.5-134.2c75,0.3,135,59.9,135,133.9
		C2632.3,1647.1,2572.6,1707.3,2497.5,1707.1z"/>
	<path class="st0" d="M1697.9,3100.6c-74.6-0.2-134.7-60-134.8-134.3c-0.1-74.8,61.5-136.4,135.6-135.6
		c73.9,0.8,134.7,62.3,134.3,135.6C1832.5,3040.5,1771.9,3100.7,1697.9,3100.6z"/>
	<path class="st0" d="M3436.9,2033.5c0.1,74.2-60,135.3-133.7,135.8c-74.2,0.5-136.4-61.2-136.2-135.3
		c0.2-74.2,60.5-134.3,134.8-134.3C3376.6,1899.8,3436.7,1959.3,3436.9,2033.5z"/>
	<path class="st0" d="M2989.7,3541.8c-0.3-63.2,50.5-115.1,113.4-115.6c64.1-0.5,116.5,50.7,116.8,114
		c0.2,63.8-51.4,115.8-115.1,115.8C3041.9,3656,2990.1,3604.6,2989.7,3541.8z"/>
	<path class="st0" d="M1901.4,3429.2c63.3,0.6,114.4,52.2,113.9,114.9c-0.5,63.3-53.4,115.2-116.6,114.5
		c-63.2-0.7-113.7-52.1-113.5-115.4C1785.3,3479.2,1836.9,3428.6,1901.4,3429.2z"/>
	<path class="st0" d="M3099.8,1570.8c-63.4,0-115-50.8-115.1-113.6c-0.2-63.3,51.8-115.5,115.4-115.8
		c63.5-0.3,115.1,51.8,114.8,115.9C3214.4,1520.6,3163.6,1570.8,3099.8,1570.8z"/>
	<path class="st0" d="M1295.7,2617.6c-63.7-0.4-114.5-50.8-114.6-114c-0.1-64,51.4-115.4,115.3-115.1
		c64.2,0.4,114.8,51.6,114.3,115.8C1410.2,2568,1359.4,2618,1295.7,2617.6z"/>
	<path class="st0" d="M3705.1,2383.1c63.4,0.7,114.3,52,113.8,114.9c-0.5,63.2-53.8,115.7-116.4,114.7
		c-64.2-1.1-114.1-52.7-113.2-117.1C3590.2,2432.1,3641.4,2382.4,3705.1,2383.1z"/>
	<path class="st0" d="M2010.5,1459.4c-0.3,63.5-51.4,114.4-114.7,114c-63.3-0.4-114.4-51.9-114-114.9c0.4-63.3,52-114.5,114.9-114.1
		C1960,1344.8,2010.7,1396.1,2010.5,1459.4z"/>
	<path class="st0" d="M1217.6,3149.4c52.5-0.3,95.2,41.1,95.9,92.9c0.7,52.8-41.8,96.1-94.4,96.3c-51.8,0.2-94.8-42.2-95.1-94
		C1123.7,3192.6,1165.8,3149.7,1217.6,3149.4z"/>
	<path class="st0" d="M3879.6,3238.2c0.1,51.7-42.1,94.1-94.1,94.6c-52.4,0.5-95.4-42.5-95.1-95.1c0.3-51.6,43.1-93.9,94.9-93.7
		C3837.3,3144.2,3879.5,3186.3,3879.6,3238.2z"/>
	<path class="st0" d="M1120.4,1761.3c0-51.5,42.6-93.9,94.5-94.1c51.8-0.3,94.3,41.9,94.7,93.9c0.4,52.3-42.8,95.4-95.3,95
		C1162.3,1855.6,1120.4,1813.3,1120.4,1761.3z"/>
	<path class="st0" d="M2494,4076.4c-51.8,0.2-94.9-42.3-94.9-93.6c0-52.4,43.1-96,94.9-95.8c51,0.2,93.7,43.3,94.2,95.1
		C2588.7,4033.3,2545.9,4076.2,2494,4076.4z"/>
	<path class="st0" d="M2590.9,1017.1c0.1,52.4-43,96-94.9,95.9c-50.9-0.1-93.7-43.3-94.3-95c-0.6-51.2,42.3-94.1,94.2-94.4
		C2547.7,923.4,2590.8,965.8,2590.9,1017.1z"/>
	<path class="st0" d="M3780.9,1850.6c-52.4-0.2-94.7-41.9-94.8-93.5c-0.1-53,42.2-95,95.2-94.6c52.4,0.4,94.3,42.4,94,94.4
		C3875.1,1809.1,3833.1,1850.8,3780.9,1850.6z"/>
	<path class="st0" d="M3386.5,1084.6c0.2,40.7-33.2,74.6-73.8,75c-41.1,0.4-74.2-33.7-74-76.1c0.2-40.8,32.3-72.8,73.2-72.9
		C3352.4,1010.4,3386.3,1044.1,3386.5,1084.6z"/>
	<path class="st0" d="M1755,1087.4c0.3,41.4-32.2,74.9-73.1,75.5c-40.3,0.6-74.4-33.1-74.9-73.8c-0.6-41.2,32.1-74.7,73.2-75
		C1721.7,1013.7,1754.7,1046.1,1755,1087.4z"/>
	<path class="st0" d="M3393,3913.4c-0.6,41.1-34.6,73.6-75.6,72.5c-41.6-1.1-73.5-34.5-72.4-75.8c1.1-41.4,34.9-74,75.5-73
		C3361,3838.1,3393.7,3872.5,3393,3913.4z"/>
	<path class="st0" d="M1760.8,3915.1c-0.2,40.2-34.2,73.7-74.8,73.5c-40.7-0.2-73.4-33.5-73.2-74.8c0.2-40.8,33.7-73.8,74.6-73.5
		C1728,3840.7,1761,3874.3,1760.8,3915.1z"/>
</g>
</svg>
