<?xml version="1.0" encoding="utf-8"?>
<!-- Generator: Adobe Illustrator 22.1.0, SVG Export Plug-In . SVG Version: 6.00 Build 0)  -->
<svg version="1.2" baseProfile="tiny" id="Layer_1" xmlns="http://www.w3.org/2000/svg" xmlns:xlink="http://www.w3.org/1999/xlink"
	 x="0px" y="0px" viewBox="0 0 5000 5000" xml:space="preserve">
<rect id="BG_Remove_it" fill="#FFFFFF" width="5000" height="5000"/>
<g>
	<path id="Circle" fill="#F7931A" d="M3779.4,2819c-176.2,706.7-891.9,1136.6-1598.5,960.5c-706.4-176.2-1136.4-891.9-960.2-1598.5
		c176.1-706.8,891.8-1136.8,1598.2-960.6C3525.5,1396.6,3955.5,2112.4,3779.4,2819z"/>
	<path id="Icon" fill="#FFFFFF" d="M2116.1,2756.2c-6.7,18-24.2,45.1-65.4,36.1c1.5,2.1-105.9-23.6-105.9-23.6l-67.6,167.5
		l189.5,42.1c35.2,7.9,69.8,16.2,103.8,24l-53.7,241.9l145.4,32.3l53.2-239.4c39.7,9.7,78.3,18.6,116.1,27l-53,238.2l145.6,32.3
		l53.7-241.4c247.9,40.4,432.9,16.8,505.3-208.3c58.3-181.2-10.4-283.2-141.9-347.5c94-24.3,163.5-88.3,179.2-217.2
		c21.8-176.1-114.2-267-298.5-325.3l53.2-239.2l-145.6-32.3l-51.8,232.9c-38.3-8.5-77.6-16.4-116.5-24.3l52.1-234.4l-145.5-32.3
		l-53.2,239.1c-31.7-6.4-62.8-12.7-92.9-19.3l0.1-0.8l-200.8-44.7l-34.5,155.5c0,0,108,21.8,105.7,23.4c59,13.1,70.6,51.6,69.6,82.4
		L2116.1,2756.2z M2801.8,2792.2c-40.1,180.8-345.1,91.5-443.8,69.6l71.3-320.5C2528,2563.3,2843.7,2603.7,2801.8,2792.2z
		 M2834.6,2325c-36.6,164.5-290.5,87.9-372.7,69.6l64.6-290.7C2608.7,2122.2,2872.7,2153.4,2834.6,2325z"/>
</g>
</svg>
